<svg width="125" height="125" viewBox="0 0 125 125" fill="none" xmlns="http://www.w3.org/2000/svg">
<path d="M105.469 7.8125C102.087 7.81105 98.796 8.90728 96.0907 10.9364C93.3853 12.9656 91.4116 15.818 90.4663 19.065C89.5209 22.312 89.655 25.7781 90.8484 28.9423C92.0417 32.1066 94.2299 34.798 97.084 36.6121L86.8882 72.2974C86.5717 72.2772 86.2546 72.2666 85.9375 72.2656C82.5764 72.262 79.3047 73.348 76.613 75.3608L57.7766 59.6638C58.6684 57.018 58.8349 54.1815 58.2588 51.4495C57.6827 48.7174 56.3851 46.1897 54.5009 44.1292C52.6167 42.0687 50.2148 40.5507 47.5451 39.7332C44.8754 38.9156 42.0353 38.8284 39.3205 39.4805C36.6056 40.1327 34.1151 41.5004 32.108 43.4414C30.1009 45.3823 28.6506 47.8257 27.9079 50.5172C27.1652 53.2087 27.1573 56.05 27.885 58.7456C28.6127 61.4412 30.0494 63.8926 32.0457 65.8447L20.988 87.9609C20.5038 87.915 20.0177 87.8915 19.5312 87.8906C15.788 87.8858 12.1671 89.2233 9.32581 91.6603C6.4845 94.0972 4.61112 97.4722 4.0457 101.172C3.48028 104.873 4.26031 108.653 6.24419 111.827C8.22808 115.002 11.2843 117.359 14.8582 118.473C18.432 119.586 22.2866 119.381 25.7222 117.895C29.1578 116.409 31.9468 113.74 33.5828 110.373C35.2188 107.007 35.5935 103.165 34.6388 99.5455C33.6842 95.926 31.4634 92.7688 28.3796 90.647L38.8289 69.7512C41.3671 70.4514 44.0414 70.4973 46.6022 69.8844C49.1629 69.2715 51.5267 68.0199 53.4729 66.2463L71.7102 81.4446C70.4718 84.1737 70.0443 87.2015 70.4789 90.1668C70.9134 93.1321 72.1916 95.9099 74.161 98.1689C76.1304 100.428 78.708 102.073 81.5864 102.908C84.4647 103.743 87.5225 103.732 90.395 102.877C93.2675 102.023 95.8336 100.36 97.7873 98.0871C99.7411 95.8145 101 93.0279 101.414 90.0596C101.828 87.0914 101.38 84.0667 100.122 81.3462C98.8649 78.6257 96.8518 76.3242 94.3227 74.7161L104.518 39.0308C104.833 39.0498 105.149 39.0625 105.469 39.0625C109.613 39.0625 113.587 37.4163 116.517 34.486C119.448 31.5558 121.094 27.5815 121.094 23.4375C121.094 19.2935 119.448 15.3192 116.517 12.389C113.587 9.4587 109.613 7.8125 105.469 7.8125ZM19.5312 111.328C17.9861 111.328 16.4756 110.87 15.1909 110.011C13.9061 109.153 12.9047 107.933 12.3134 106.505C11.7221 105.078 11.5674 103.507 11.8689 101.991C12.1703 100.476 12.9144 99.084 14.007 97.9914C15.0996 96.8988 16.4916 96.1547 18.0071 95.8532C19.5226 95.5518 21.0934 95.7065 22.521 96.2978C23.9485 96.8891 25.1687 97.8905 26.0271 99.1752C26.8856 100.46 27.3438 101.97 27.3438 103.516C27.3414 105.587 26.5176 107.573 25.053 109.037C23.5883 110.502 21.6025 111.326 19.5312 111.328ZM42.9687 62.5C41.4236 62.5 39.9131 62.0418 38.6284 61.1834C37.3436 60.3249 36.3422 59.1048 35.7509 57.6772C35.1596 56.2497 35.0049 54.6788 35.3064 53.1634C35.6078 51.6479 36.3519 50.2558 37.4445 49.1632C38.5371 48.0706 39.9291 47.3266 41.4446 47.0251C42.9601 46.7237 44.5309 46.8784 45.9585 47.4697C47.386 48.061 48.6062 49.0624 49.4646 50.3471C50.3231 51.6319 50.7812 53.1423 50.7812 54.6875C50.7789 56.7588 49.9551 58.7446 48.4904 60.2092C47.0258 61.6738 45.04 62.4977 42.9687 62.5ZM85.9375 95.7031C84.3923 95.7031 82.8819 95.2449 81.5971 94.3865C80.3123 93.528 79.311 92.3079 78.7197 90.8803C78.1284 89.4528 77.9737 87.882 78.2751 86.3665C78.5766 84.851 79.3206 83.459 80.4132 82.3664C81.5058 81.2738 82.8979 80.5297 84.4134 80.2282C85.9288 79.9268 87.4997 80.0815 88.9272 80.6728C90.3548 81.2641 91.5749 82.2655 92.4333 83.5502C93.2918 84.835 93.75 86.3455 93.75 87.8906C93.7477 89.9619 92.9238 91.9477 91.4592 93.4123C89.9946 94.8769 88.0088 95.7008 85.9375 95.7031ZM105.469 31.25C103.924 31.25 102.413 30.7918 101.128 29.9334C99.8436 29.0749 98.8422 27.8548 98.2509 26.4272C97.6596 24.9997 97.5049 23.4288 97.8064 21.9134C98.1078 20.3979 98.8519 19.0058 99.9445 17.9132C101.037 16.8206 102.429 16.0766 103.945 15.7751C105.46 15.4737 107.031 15.6284 108.458 16.2197C109.886 16.811 111.106 17.8124 111.965 19.0971C112.823 20.3819 113.281 21.8923 113.281 23.4375C113.279 25.5088 112.455 27.4946 110.99 28.9592C109.526 30.4238 107.54 31.2477 105.469 31.25Z" fill="#F2F2F2"/>
</svg>
