<svg width="160" height="130" viewBox="0 0 160 130" fill="none" xmlns="http://www.w3.org/2000/svg">
<g filter="url(#filter0_d_6_337)">
<path d="M57.2 61C73.9912 61 87.6 47.3441 87.6 30.5C87.6 13.6559 73.9912 0 57.2 0C40.4087 0 26.8 13.6559 26.8 30.5C26.8 47.3441 40.4087 61 57.2 61ZM69.2412 72.4375H45.1587C22.4229 72.4375 4 90.9281 4 113.732C4 118.307 7.686 122 12.2317 122H102.159C106.719 122 110.4 118.307 110.4 113.732C110.4 90.9281 91.97 72.4375 69.2412 72.4375ZM117.786 76.25H100.247C111.16 85.2332 118 98.6723 118 113.732C118 116.782 117.097 119.593 115.625 122H148.4C152.604 122 156 118.569 156 114.161C156 93.3109 138.995 76.25 117.786 76.25ZM106.6 61C121.301 61 133.2 49.0621 133.2 34.3125C133.2 19.5629 121.301 7.625 106.6 7.625C100.636 7.625 95.1905 9.6635 90.754 12.9887C93.49 18.2595 95.2 24.1617 95.2 30.5C95.2 38.9637 92.3666 46.7365 87.6974 53.0676C92.5163 57.95 99.19 61 106.6 61Z" fill="white"/>
</g>
<defs>
<filter id="filter0_d_6_337" x="0" y="0" width="160" height="130" filterUnits="userSpaceOnUse" color-interpolation-filters="sRGB">
<feFlood flood-opacity="0" result="BackgroundImageFix"/>
<feColorMatrix in="SourceAlpha" type="matrix" values="0 0 0 0 0 0 0 0 0 0 0 0 0 0 0 0 0 0 127 0" result="hardAlpha"/>
<feOffset dy="4"/>
<feGaussianBlur stdDeviation="2"/>
<feComposite in2="hardAlpha" operator="out"/>
<feColorMatrix type="matrix" values="0 0 0 0 0 0 0 0 0 0 0 0 0 0 0 0 0 0 0.25 0"/>
<feBlend mode="normal" in2="BackgroundImageFix" result="effect1_dropShadow_6_337"/>
<feBlend mode="normal" in="SourceGraphic" in2="effect1_dropShadow_6_337" result="shape"/>
</filter>
</defs>
</svg>
