<svg width="96" height="127" viewBox="0 0 96 127" fill="none" xmlns="http://www.w3.org/2000/svg">
<g clip-path="url(#clip0_5_304)">
<path d="M83.625 0H12.375C6.03672 0 0.5 5.55129 0.5 11.9062V115.094C0.5 121.444 6.03672 127 12.375 127H83.625C89.9633 127 95.5 121.449 95.5 115.094V11.9062C95.5 5.55129 89.9583 0 83.625 0ZM16.3333 51.5938C16.3333 49.4109 18.1146 47.625 20.2917 47.625H28.2083C30.3854 47.625 32.1667 49.4109 32.1667 51.5938V59.5312C32.1667 61.7141 30.3854 63.5 28.2083 63.5H20.2917C18.1146 63.5 16.3333 61.7141 16.3333 59.5312V51.5938ZM16.3333 75.4062C16.3333 73.2234 18.1146 71.4375 20.2917 71.4375H28.2083C30.3854 71.4375 32.1667 73.2234 32.1667 75.4062V83.3438C32.1667 85.5266 30.3854 87.3125 28.2083 87.3125H20.2917C18.1146 87.3125 16.3333 85.5266 16.3333 83.3438V75.4062ZM55.9167 107.156C55.9167 109.339 54.1357 111.125 51.9583 111.125H20.2917C18.1146 111.125 16.3333 109.339 16.3333 107.156V99.2188C16.3333 97.0359 18.1146 95.25 20.2917 95.25H51.9583C54.1357 95.25 55.9167 97.0357 55.9167 99.2188V107.156ZM55.9167 83.3438C55.9167 85.5268 54.1357 87.3125 51.9583 87.3125H44.0417C41.8646 87.3125 40.0833 85.5266 40.0833 83.3438V75.4062C40.0833 73.2234 41.8646 71.4375 44.0417 71.4375H51.9583C54.1354 71.4375 55.9167 73.2234 55.9167 75.4062V83.3438ZM55.9167 59.5312C55.9167 61.7141 54.1354 63.5 51.9583 63.5H44.0417C41.8646 63.5 40.0833 61.7141 40.0833 59.5312V51.5938C40.0833 49.4109 41.8646 47.625 44.0417 47.625H51.9583C54.1354 47.625 55.9167 49.4109 55.9167 51.5938V59.5312ZM79.6667 107.156C79.6667 109.339 77.8857 111.125 75.7083 111.125H67.7917C65.6148 111.125 63.8333 109.339 63.8333 107.156V99.2188C63.8333 97.0357 65.6148 95.25 67.7917 95.25H75.7083C77.8857 95.25 79.6667 97.0357 79.6667 99.2188V107.156ZM79.6667 83.3438C79.6667 85.5268 77.8857 87.3125 75.7083 87.3125H67.7917C65.6148 87.3125 63.8333 85.5268 63.8333 83.3438V75.4062C63.8333 73.2234 65.6146 71.4375 67.7917 71.4375H75.7083C77.8854 71.4375 79.6667 73.2234 79.6667 75.4062V83.3438ZM79.6667 59.5312C79.6667 61.7141 77.8854 63.5 75.7083 63.5H67.7917C65.6146 63.5 63.8333 61.7141 63.8333 59.5312V51.5938C63.8333 49.4109 65.6146 47.625 67.7917 47.625H75.7083C77.8854 47.625 79.6667 49.4109 79.6667 51.5938V59.5312ZM79.6667 35.7188C79.6667 37.9016 77.8854 39.6875 75.7083 39.6875H20.2917C18.1146 39.6875 16.3333 37.9016 16.3333 35.7188V19.8438C16.3333 17.6609 18.1146 15.875 20.2917 15.875H75.7083C77.8854 15.875 79.6667 17.6609 79.6667 19.8438V35.7188Z" fill="white"/>
</g>
<defs>
<clipPath id="clip0_5_304">
<rect width="95" height="127" fill="white" transform="translate(0.5)"/>
</clipPath>
</defs>
</svg>
