<svg width="168" height="127" viewBox="0 0 168 127" fill="none" xmlns="http://www.w3.org/2000/svg">
<path d="M28.3333 14.75V84.3333H63.125V56.5C63.125 52.8091 64.5912 49.2693 67.2011 46.6594C69.811 44.0495 73.3507 42.5833 77.0417 42.5833H111.833C115.524 42.5833 119.064 44.0495 121.674 46.6594C124.284 49.2693 125.75 52.8091 125.75 56.5V84.3333H139.667V14.75H28.3333ZM0.5 112.167V98.25H28.3333C24.6424 98.25 21.1026 96.7838 18.4928 94.1739C15.8829 91.564 14.4167 88.0242 14.4167 84.3333V14.75C14.4167 11.0591 15.8829 7.51929 18.4928 4.90941C21.1026 2.29953 24.6424 0.833313 28.3333 0.833313H139.667C143.358 0.833313 146.897 2.29953 149.507 4.90941C152.117 7.51929 153.583 11.0591 153.583 14.75V84.3333C153.583 88.0242 152.117 91.564 149.507 94.1739C146.897 96.7838 143.358 98.25 139.667 98.25H167.5V112.167H125.75C125.75 115.858 124.284 119.397 121.674 122.007C119.064 124.617 115.524 126.083 111.833 126.083H77.0417C73.3507 126.083 69.811 124.617 67.2011 122.007C64.5912 119.397 63.125 115.858 63.125 112.167H0.5ZM80.5208 112.167C79.5981 112.167 78.7132 112.533 78.0607 113.186C77.4082 113.838 77.0417 114.723 77.0417 115.646C77.0417 116.569 77.4082 117.453 78.0607 118.106C78.7132 118.758 79.5981 119.125 80.5208 119.125C81.4436 119.125 82.3285 118.758 82.981 118.106C83.6335 117.453 84 116.569 84 115.646C84 114.723 83.6335 113.838 82.981 113.186C82.3285 112.533 81.4436 112.167 80.5208 112.167ZM108.354 112.167C107.431 112.167 106.546 112.533 105.894 113.186C105.242 113.838 104.875 114.723 104.875 115.646C104.875 116.569 105.242 117.453 105.894 118.106C106.546 118.758 107.431 119.125 108.354 119.125C109.277 119.125 110.162 118.758 110.814 118.106C111.467 117.453 111.833 116.569 111.833 115.646C111.833 114.723 111.467 113.838 110.814 113.186C110.162 112.533 109.277 112.167 108.354 112.167ZM90.9583 112.167V119.125H97.9167V112.167H90.9583ZM77.0417 56.5V105.208H111.833V56.5H77.0417Z" fill="white"/>
</svg>
